<mxfile host="app.diagrams.net" agent="Mozilla/5.0 (X11; Linux x86_64) AppleWebKit/537.36 (KHTML, like Gecko) Chrome/135.0.0.0 Safari/537.36" version="26.2.13">
  <diagram name="Page-1" id="vTLdhLMDzEt4X6IVa9T1">
    <mxGraphModel dx="716" dy="442" grid="1" gridSize="10" guides="1" tooltips="1" connect="1" arrows="1" fold="1" page="1" pageScale="1" pageWidth="1100" pageHeight="850" math="0" shadow="0">
      <root>
        <mxCell id="0" />
        <mxCell id="1" parent="0" />
        <mxCell id="_rXOLrQLvxj1EaKKoI4X-3" value="&lt;font&gt;USER&lt;/font&gt;" style="rounded=0;whiteSpace=wrap;html=1;fillColor=none;fontSize=11;" parent="1" vertex="1">
          <mxGeometry x="405" y="260" width="90" height="40" as="geometry" />
        </mxCell>
        <mxCell id="_rXOLrQLvxj1EaKKoI4X-31" value="" style="ellipse;whiteSpace=wrap;html=1;aspect=fixed;fillColor=light-dark(#FFFFFF,#FFFFFF);fontSize=11;" parent="1" vertex="1">
          <mxGeometry x="370" y="240" width="10" height="10" as="geometry" />
        </mxCell>
        <mxCell id="_rXOLrQLvxj1EaKKoI4X-32" value="id" style="text;html=1;align=center;verticalAlign=middle;resizable=0;points=[];autosize=1;strokeColor=none;fillColor=none;fontSize=11;" parent="1" vertex="1">
          <mxGeometry x="345" y="230" width="30" height="30" as="geometry" />
        </mxCell>
        <mxCell id="_rXOLrQLvxj1EaKKoI4X-33" value="email" style="text;html=1;align=center;verticalAlign=middle;resizable=0;points=[];autosize=1;strokeColor=none;fillColor=none;fontSize=11;" parent="1" vertex="1">
          <mxGeometry x="325" y="250" width="50" height="30" as="geometry" />
        </mxCell>
        <mxCell id="_rXOLrQLvxj1EaKKoI4X-37" value="" style="endArrow=none;html=1;rounded=0;entryX=1;entryY=0.5;entryDx=0;entryDy=0;fontSize=11;" parent="1" target="_rXOLrQLvxj1EaKKoI4X-31" edge="1">
          <mxGeometry width="50" height="50" relative="1" as="geometry">
            <mxPoint x="405" y="260" as="sourcePoint" />
            <mxPoint x="360.00000000000455" y="265" as="targetPoint" />
            <Array as="points">
              <mxPoint x="390" y="245" />
            </Array>
          </mxGeometry>
        </mxCell>
        <mxCell id="_rXOLrQLvxj1EaKKoI4X-40" value="" style="endArrow=none;html=1;rounded=0;entryX=1;entryY=0.5;entryDx=0;entryDy=0;exitX=0;exitY=0.5;exitDx=0;exitDy=0;fontSize=11;" parent="1" edge="1">
          <mxGeometry width="50" height="50" relative="1" as="geometry">
            <mxPoint x="405" y="264.8" as="sourcePoint" />
            <mxPoint x="375" y="264.8" as="targetPoint" />
          </mxGeometry>
        </mxCell>
        <mxCell id="_rXOLrQLvxj1EaKKoI4X-43" value="username" style="text;html=1;align=center;verticalAlign=middle;resizable=0;points=[];autosize=1;strokeColor=none;fillColor=none;fontSize=11;" parent="1" vertex="1">
          <mxGeometry x="305" y="270" width="70" height="30" as="geometry" />
        </mxCell>
        <mxCell id="_rXOLrQLvxj1EaKKoI4X-44" value="" style="ellipse;whiteSpace=wrap;html=1;aspect=fixed;fillColor=light-dark(#FFFFFF,#FFFFFF);fontSize=11;" parent="1" vertex="1">
          <mxGeometry x="370" y="280" width="10" height="10" as="geometry" />
        </mxCell>
        <mxCell id="_rXOLrQLvxj1EaKKoI4X-45" value="" style="ellipse;whiteSpace=wrap;html=1;aspect=fixed;fillColor=light-dark(#FFFFFF,#FFFFFF);fontSize=11;" parent="1" vertex="1">
          <mxGeometry x="370" y="260" width="10" height="10" as="geometry" />
        </mxCell>
        <mxCell id="_rXOLrQLvxj1EaKKoI4X-51" value="(0, n)" style="text;html=1;align=center;verticalAlign=middle;resizable=0;points=[];autosize=1;strokeColor=none;fillColor=none;" parent="1" vertex="1">
          <mxGeometry x="420" y="233" width="50" height="30" as="geometry" />
        </mxCell>
        <mxCell id="ANEjqbXVITIKJhGTVzRm-19" value="" style="endArrow=none;html=1;rounded=0;entryX=-0.006;entryY=0.889;entryDx=0;entryDy=0;exitX=1;exitY=0.5;exitDx=0;exitDy=0;fontSize=11;entryPerimeter=0;" parent="1" source="ANEjqbXVITIKJhGTVzRm-21" target="_rXOLrQLvxj1EaKKoI4X-3" edge="1">
          <mxGeometry width="50" height="50" relative="1" as="geometry">
            <mxPoint x="395" y="308" as="sourcePoint" />
            <mxPoint x="415" y="323" as="targetPoint" />
            <Array as="points">
              <mxPoint x="390" y="310" />
            </Array>
          </mxGeometry>
        </mxCell>
        <mxCell id="ANEjqbXVITIKJhGTVzRm-20" value="password" style="text;html=1;align=center;verticalAlign=middle;resizable=0;points=[];autosize=1;strokeColor=none;fillColor=none;fontSize=11;" parent="1" vertex="1">
          <mxGeometry x="305" y="295" width="70" height="30" as="geometry" />
        </mxCell>
        <mxCell id="ANEjqbXVITIKJhGTVzRm-21" value="" style="ellipse;whiteSpace=wrap;html=1;aspect=fixed;fillColor=none;fontSize=11;" parent="1" vertex="1">
          <mxGeometry x="370" y="305" width="10" height="10" as="geometry" />
        </mxCell>
        <mxCell id="ANEjqbXVITIKJhGTVzRm-28" value="&lt;font&gt;POST&lt;/font&gt;" style="rounded=0;whiteSpace=wrap;html=1;fillColor=none;fontSize=11;" parent="1" vertex="1">
          <mxGeometry x="740" y="260" width="90" height="40" as="geometry" />
        </mxCell>
        <mxCell id="ANEjqbXVITIKJhGTVzRm-29" value="&lt;font&gt;follows&lt;/font&gt;" style="shape=rhombus;perimeter=rhombusPerimeter;whiteSpace=wrap;html=1;align=center;fillColor=none;fontSize=11;" parent="1" vertex="1">
          <mxGeometry x="505" y="120" width="100" height="50" as="geometry" />
        </mxCell>
        <mxCell id="ANEjqbXVITIKJhGTVzRm-30" value="" style="endArrow=none;html=1;rounded=0;entryX=0;entryY=0.5;entryDx=0;entryDy=0;exitX=0.25;exitY=0;exitDx=0;exitDy=0;fontSize=11;" parent="1" source="_rXOLrQLvxj1EaKKoI4X-3" target="ANEjqbXVITIKJhGTVzRm-29" edge="1">
          <mxGeometry width="50" height="50" relative="1" as="geometry">
            <mxPoint x="660" y="290" as="sourcePoint" />
            <mxPoint x="720" y="290" as="targetPoint" />
            <Array as="points">
              <mxPoint x="428" y="145" />
            </Array>
          </mxGeometry>
        </mxCell>
        <mxCell id="ANEjqbXVITIKJhGTVzRm-31" value="" style="endArrow=none;html=1;rounded=0;entryX=1;entryY=0.5;entryDx=0;entryDy=0;exitX=0.5;exitY=1;exitDx=0;exitDy=0;fontSize=11;" parent="1" source="ANEjqbXVITIKJhGTVzRm-29" target="_rXOLrQLvxj1EaKKoI4X-3" edge="1">
          <mxGeometry width="50" height="50" relative="1" as="geometry">
            <mxPoint x="457" y="309" as="sourcePoint" />
            <mxPoint x="755" y="300" as="targetPoint" />
            <Array as="points">
              <mxPoint x="555" y="210" />
              <mxPoint x="555" y="280" />
            </Array>
          </mxGeometry>
        </mxCell>
        <mxCell id="ANEjqbXVITIKJhGTVzRm-32" value="(0, n)" style="text;html=1;align=center;verticalAlign=middle;resizable=0;points=[];autosize=1;strokeColor=none;fillColor=none;" parent="1" vertex="1">
          <mxGeometry x="490" y="285" width="50" height="30" as="geometry" />
        </mxCell>
        <mxCell id="ANEjqbXVITIKJhGTVzRm-34" value="uploads" style="shape=rhombus;perimeter=rhombusPerimeter;whiteSpace=wrap;html=1;align=center;fillColor=none;fontSize=11;" parent="1" vertex="1">
          <mxGeometry x="575" y="268" width="100" height="45" as="geometry" />
        </mxCell>
        <mxCell id="ANEjqbXVITIKJhGTVzRm-37" value="" style="endArrow=none;html=1;rounded=0;entryX=1;entryY=0.5;entryDx=0;entryDy=0;exitX=0;exitY=0.75;exitDx=0;exitDy=0;fontSize=11;" parent="1" source="ANEjqbXVITIKJhGTVzRm-28" target="ANEjqbXVITIKJhGTVzRm-34" edge="1">
          <mxGeometry width="50" height="50" relative="1" as="geometry">
            <mxPoint x="440" y="310" as="sourcePoint" />
            <mxPoint x="440" y="455" as="targetPoint" />
            <Array as="points" />
          </mxGeometry>
        </mxCell>
        <mxCell id="ANEjqbXVITIKJhGTVzRm-47" value="(0, n)" style="text;html=1;align=center;verticalAlign=middle;resizable=0;points=[];autosize=1;strokeColor=none;fillColor=none;" parent="1" vertex="1">
          <mxGeometry x="742" y="295" width="50" height="30" as="geometry" />
        </mxCell>
        <mxCell id="ANEjqbXVITIKJhGTVzRm-48" value="(1, 1)" style="text;html=1;align=center;verticalAlign=middle;resizable=0;points=[];autosize=1;strokeColor=none;fillColor=none;" parent="1" vertex="1">
          <mxGeometry x="697" y="265" width="50" height="30" as="geometry" />
        </mxCell>
        <mxCell id="ANEjqbXVITIKJhGTVzRm-55" value="" style="endArrow=none;html=1;rounded=0;exitX=1;exitY=0.5;exitDx=0;exitDy=0;fontSize=11;entryX=0;entryY=0.5;entryDx=0;entryDy=0;" parent="1" target="ANEjqbXVITIKJhGTVzRm-57" edge="1">
          <mxGeometry width="50" height="50" relative="1" as="geometry">
            <mxPoint x="830" y="270" as="sourcePoint" />
            <mxPoint x="820.08" y="365" as="targetPoint" />
            <Array as="points" />
          </mxGeometry>
        </mxCell>
        <mxCell id="ANEjqbXVITIKJhGTVzRm-57" value="" style="ellipse;whiteSpace=wrap;html=1;aspect=fixed;fillColor=none;fontSize=11;" parent="1" vertex="1">
          <mxGeometry x="865" y="265" width="10" height="10" as="geometry" />
        </mxCell>
        <mxCell id="ANEjqbXVITIKJhGTVzRm-59" value="" style="endArrow=none;html=1;rounded=0;fontSize=11;entryX=0;entryY=0.5;entryDx=0;entryDy=0;exitX=1.003;exitY=0.598;exitDx=0;exitDy=0;exitPerimeter=0;" parent="1" source="ANEjqbXVITIKJhGTVzRm-28" target="ANEjqbXVITIKJhGTVzRm-60" edge="1">
          <mxGeometry width="50" height="50" relative="1" as="geometry">
            <mxPoint x="830" y="280" as="sourcePoint" />
            <mxPoint x="800.08" y="365" as="targetPoint" />
            <Array as="points">
              <mxPoint x="845" y="288" />
            </Array>
          </mxGeometry>
        </mxCell>
        <mxCell id="ANEjqbXVITIKJhGTVzRm-60" value="" style="ellipse;whiteSpace=wrap;html=1;aspect=fixed;fillColor=none;fontSize=11;" parent="1" vertex="1">
          <mxGeometry x="865" y="283" width="10" height="10" as="geometry" />
        </mxCell>
        <mxCell id="ANEjqbXVITIKJhGTVzRm-61" value="created_at" style="text;html=1;align=left;verticalAlign=middle;resizable=0;points=[];autosize=1;strokeColor=none;fillColor=none;" parent="1" vertex="1">
          <mxGeometry x="875" y="253" width="80" height="30" as="geometry" />
        </mxCell>
        <mxCell id="ANEjqbXVITIKJhGTVzRm-62" value="description" style="text;html=1;align=center;verticalAlign=middle;resizable=0;points=[];autosize=1;strokeColor=none;fillColor=none;" parent="1" vertex="1">
          <mxGeometry x="865" y="273" width="80" height="30" as="geometry" />
        </mxCell>
        <mxCell id="ANEjqbXVITIKJhGTVzRm-63" value="(0,1)" style="text;html=1;align=left;verticalAlign=middle;resizable=0;points=[];autosize=1;strokeColor=none;fillColor=none;fontSize=11;rotation=0;" parent="1" vertex="1">
          <mxGeometry x="841" y="279" width="50" height="30" as="geometry" />
        </mxCell>
        <mxCell id="ANEjqbXVITIKJhGTVzRm-66" value="" style="endArrow=none;html=1;rounded=0;fontSize=11;exitX=1;exitY=1;exitDx=0;exitDy=0;entryX=0;entryY=0.5;entryDx=0;entryDy=0;" parent="1" source="ANEjqbXVITIKJhGTVzRm-28" target="ANEjqbXVITIKJhGTVzRm-67" edge="1">
          <mxGeometry width="50" height="50" relative="1" as="geometry">
            <mxPoint x="753" y="305" as="sourcePoint" />
            <mxPoint x="755" y="415" as="targetPoint" />
            <Array as="points">
              <mxPoint x="845" y="314" />
            </Array>
          </mxGeometry>
        </mxCell>
        <mxCell id="ANEjqbXVITIKJhGTVzRm-67" value="" style="ellipse;whiteSpace=wrap;html=1;aspect=fixed;fillColor=none;fontSize=11;" parent="1" vertex="1">
          <mxGeometry x="865" y="309" width="10" height="10" as="geometry" />
        </mxCell>
        <mxCell id="ANEjqbXVITIKJhGTVzRm-68" value="image" style="text;html=1;align=left;verticalAlign=middle;resizable=0;points=[];autosize=1;strokeColor=none;fillColor=none;" parent="1" vertex="1">
          <mxGeometry x="875" y="299" width="60" height="30" as="geometry" />
        </mxCell>
        <mxCell id="ANEjqbXVITIKJhGTVzRm-69" value="(0,10)" style="text;html=1;align=center;verticalAlign=middle;resizable=0;points=[];autosize=1;strokeColor=none;fillColor=none;fontSize=11;rotation=0;" parent="1" vertex="1">
          <mxGeometry x="827" y="306" width="50" height="30" as="geometry" />
        </mxCell>
        <mxCell id="ANEjqbXVITIKJhGTVzRm-72" value="" style="endArrow=none;html=1;rounded=0;fontSize=11;entryX=0;entryY=0.5;entryDx=0;entryDy=0;exitX=1;exitY=0;exitDx=0;exitDy=0;" parent="1" source="ANEjqbXVITIKJhGTVzRm-28" target="ANEjqbXVITIKJhGTVzRm-73" edge="1">
          <mxGeometry width="50" height="50" relative="1" as="geometry">
            <mxPoint x="835" y="355" as="sourcePoint" />
            <mxPoint x="835" y="365" as="targetPoint" />
            <Array as="points">
              <mxPoint x="845" y="250" />
            </Array>
          </mxGeometry>
        </mxCell>
        <mxCell id="ANEjqbXVITIKJhGTVzRm-73" value="" style="ellipse;whiteSpace=wrap;html=1;aspect=fixed;fillColor=light-dark(#FFFFFF,#FFFFFF);fontSize=11;direction=east;" parent="1" vertex="1">
          <mxGeometry x="865" y="245" width="10" height="10" as="geometry" />
        </mxCell>
        <mxCell id="ANEjqbXVITIKJhGTVzRm-75" value="id" style="text;html=1;align=left;verticalAlign=middle;resizable=0;points=[];autosize=1;strokeColor=none;fillColor=none;" parent="1" vertex="1">
          <mxGeometry x="877" y="235" width="30" height="30" as="geometry" />
        </mxCell>
        <mxCell id="ANEjqbXVITIKJhGTVzRm-76" value="" style="endArrow=none;html=1;rounded=0;exitX=0.5;exitY=1;exitDx=0;exitDy=0;fontSize=11;entryX=0;entryY=0.5;entryDx=0;entryDy=0;" parent="1" source="_rXOLrQLvxj1EaKKoI4X-3" target="ANEjqbXVITIKJhGTVzRm-77" edge="1">
          <mxGeometry width="50" height="50" relative="1" as="geometry">
            <mxPoint x="438.75" y="302.5" as="sourcePoint" />
            <mxPoint x="251.25" y="592.5" as="targetPoint" />
            <Array as="points">
              <mxPoint x="450" y="391" />
            </Array>
          </mxGeometry>
        </mxCell>
        <mxCell id="ANEjqbXVITIKJhGTVzRm-77" value="comments" style="shape=rhombus;perimeter=rhombusPerimeter;whiteSpace=wrap;html=1;align=center;fillColor=none;fontSize=11;" parent="1" vertex="1">
          <mxGeometry x="575" y="368" width="100" height="45" as="geometry" />
        </mxCell>
        <mxCell id="ANEjqbXVITIKJhGTVzRm-78" value="" style="endArrow=none;html=1;rounded=0;fontSize=11;entryX=1;entryY=0.5;entryDx=0;entryDy=0;exitX=0.5;exitY=1;exitDx=0;exitDy=0;" parent="1" source="ANEjqbXVITIKJhGTVzRm-28" target="ANEjqbXVITIKJhGTVzRm-77" edge="1">
          <mxGeometry width="50" height="50" relative="1" as="geometry">
            <mxPoint x="724.19" y="341.02000000000004" as="sourcePoint" />
            <mxPoint x="475" y="491" as="targetPoint" />
            <Array as="points">
              <mxPoint x="785" y="390" />
            </Array>
          </mxGeometry>
        </mxCell>
        <mxCell id="ANEjqbXVITIKJhGTVzRm-79" value="(0,n)" style="text;html=1;align=center;verticalAlign=middle;resizable=0;points=[];autosize=1;strokeColor=none;fillColor=none;" parent="1" vertex="1">
          <mxGeometry x="440" y="295" width="50" height="30" as="geometry" />
        </mxCell>
        <mxCell id="ANEjqbXVITIKJhGTVzRm-82" value="" style="endArrow=none;html=1;rounded=0;exitX=0.445;exitY=0.935;exitDx=0;exitDy=0;fontSize=11;entryX=0.5;entryY=0;entryDx=0;entryDy=0;exitPerimeter=0;" parent="1" source="ANEjqbXVITIKJhGTVzRm-77" target="ANEjqbXVITIKJhGTVzRm-83" edge="1">
          <mxGeometry width="50" height="50" relative="1" as="geometry">
            <mxPoint x="335" y="399" as="sourcePoint" />
            <mxPoint x="485" y="438" as="targetPoint" />
            <Array as="points" />
          </mxGeometry>
        </mxCell>
        <mxCell id="ANEjqbXVITIKJhGTVzRm-83" value="" style="ellipse;whiteSpace=wrap;html=1;aspect=fixed;fillColor=none;fontSize=11;" parent="1" vertex="1">
          <mxGeometry x="615" y="443" width="10" height="10" as="geometry" />
        </mxCell>
        <mxCell id="ANEjqbXVITIKJhGTVzRm-85" value="content" style="text;html=1;align=center;verticalAlign=middle;resizable=0;points=[];autosize=1;strokeColor=none;fillColor=none;" parent="1" vertex="1">
          <mxGeometry x="620" y="433" width="60" height="30" as="geometry" />
        </mxCell>
        <mxCell id="ANEjqbXVITIKJhGTVzRm-86" value="" style="endArrow=none;html=1;rounded=0;exitX=0.644;exitY=0.869;exitDx=0;exitDy=0;fontSize=11;exitPerimeter=0;entryX=0.5;entryY=0;entryDx=0;entryDy=0;" parent="1" source="ANEjqbXVITIKJhGTVzRm-77" target="ANEjqbXVITIKJhGTVzRm-87" edge="1">
          <mxGeometry width="50" height="50" relative="1" as="geometry">
            <mxPoint x="525" y="463" as="sourcePoint" />
            <mxPoint x="560" y="500" as="targetPoint" />
            <Array as="points" />
          </mxGeometry>
        </mxCell>
        <mxCell id="ANEjqbXVITIKJhGTVzRm-87" value="" style="ellipse;whiteSpace=wrap;html=1;aspect=fixed;fillColor=none;fontSize=11;" parent="1" vertex="1">
          <mxGeometry x="635" y="423" width="10" height="10" as="geometry" />
        </mxCell>
        <mxCell id="ANEjqbXVITIKJhGTVzRm-88" value="created_at" style="text;html=1;align=center;verticalAlign=middle;resizable=0;points=[];autosize=1;strokeColor=none;fillColor=none;" parent="1" vertex="1">
          <mxGeometry x="635" y="413" width="80" height="30" as="geometry" />
        </mxCell>
        <mxCell id="Vg8crvU1tJOl-V_Ojh_K-1" value="image" style="text;html=1;align=right;verticalAlign=middle;resizable=0;points=[];autosize=1;strokeColor=none;fillColor=none;fontSize=11;" parent="1" vertex="1">
          <mxGeometry x="315" y="315" width="50" height="30" as="geometry" />
        </mxCell>
        <mxCell id="Vg8crvU1tJOl-V_Ojh_K-2" value="" style="endArrow=none;html=1;rounded=0;exitX=1;exitY=0.5;exitDx=0;exitDy=0;fontSize=11;entryX=0.071;entryY=1.004;entryDx=0;entryDy=0;entryPerimeter=0;" parent="1" source="Vg8crvU1tJOl-V_Ojh_K-3" target="_rXOLrQLvxj1EaKKoI4X-3" edge="1">
          <mxGeometry width="50" height="50" relative="1" as="geometry">
            <mxPoint x="190.26999999999066" y="307.48" as="sourcePoint" />
            <mxPoint x="170.0000000000001" y="307.52000000000004" as="targetPoint" />
            <Array as="points">
              <mxPoint x="390" y="330" />
            </Array>
          </mxGeometry>
        </mxCell>
        <mxCell id="Vg8crvU1tJOl-V_Ojh_K-3" value="" style="ellipse;whiteSpace=wrap;html=1;aspect=fixed;fillColor=none;fontSize=11;" parent="1" vertex="1">
          <mxGeometry x="370" y="325" width="10" height="10" as="geometry" />
        </mxCell>
        <mxCell id="Vg8crvU1tJOl-V_Ojh_K-4" value="(0,1)" style="text;html=1;align=center;verticalAlign=middle;resizable=0;points=[];autosize=1;strokeColor=none;fillColor=none;fontSize=10;rotation=0;" parent="1" vertex="1">
          <mxGeometry x="385" y="313" width="40" height="30" as="geometry" />
        </mxCell>
        <mxCell id="Vg8crvU1tJOl-V_Ojh_K-5" value="" style="endArrow=none;html=1;rounded=0;entryX=1;entryY=0.5;entryDx=0;entryDy=0;exitX=-0.004;exitY=0.625;exitDx=0;exitDy=0;fontSize=11;exitPerimeter=0;" parent="1" source="_rXOLrQLvxj1EaKKoI4X-3" target="_rXOLrQLvxj1EaKKoI4X-44" edge="1">
          <mxGeometry width="50" height="50" relative="1" as="geometry">
            <mxPoint x="415" y="274.8" as="sourcePoint" />
            <mxPoint x="385" y="274.8" as="targetPoint" />
          </mxGeometry>
        </mxCell>
        <mxCell id="Vg8crvU1tJOl-V_Ojh_K-6" value="(0, n)" style="text;html=1;align=center;verticalAlign=middle;resizable=0;points=[];autosize=1;strokeColor=none;fillColor=none;" parent="1" vertex="1">
          <mxGeometry x="490" y="254" width="50" height="30" as="geometry" />
        </mxCell>
        <mxCell id="Vg8crvU1tJOl-V_Ojh_K-8" value="" style="endArrow=none;html=1;rounded=0;fontSize=11;exitX=1;exitY=0.75;exitDx=0;exitDy=0;entryX=0;entryY=0.5;entryDx=0;entryDy=0;" parent="1" source="_rXOLrQLvxj1EaKKoI4X-3" target="ANEjqbXVITIKJhGTVzRm-34" edge="1">
          <mxGeometry width="50" height="50" relative="1" as="geometry">
            <mxPoint x="439" y="309" as="sourcePoint" />
            <mxPoint x="570" y="300" as="targetPoint" />
            <Array as="points" />
          </mxGeometry>
        </mxCell>
      </root>
    </mxGraphModel>
  </diagram>
</mxfile>
